# xmcd
#
# Track frame offsets: 
#        150
#        17770
#        33370
#
# Disc length: 640 seconds
#
# Revision: 1
# Processed by: cddbd v1.5.2PL0 Copyright (c) Steve Scherf et al.
# Submitted via: ExactAudioCopy v0.99pb5
#
DISCID=19027e03
DTITLE=Pavement - Carrot Rope
DYEAR=1999
DGENRE=Carrot Rope
TTITLE0=Carrot Rope
TTITLE1=Harness Your Hopes
TTITLE2=Roll With the Wind
EXTD=YEAR: 1999
EXTT0=
EXTT1=
EXTT2=
PLAYORDER=
